<?xml version="1.0" standalone="yes"?>

<svg version="1.1" viewBox="0.0 0.0 809.1811023622047 699.7454068241469" fill="none" stroke="none" stroke-linecap="square" stroke-miterlimit="10" xmlns="http://www.w3.org/2000/svg" xmlns:xlink="http://www.w3.org/1999/xlink"><clipPath id="p.0"><path d="m0 0l809.1811 0l0 699.7454l-809.1811 0l0 -699.7454z" clip-rule="nonzero"></path></clipPath><g clip-path="url(#p.0)"><path fill="#000000" fill-opacity="0.0" d="m0 0l809.1811 0l0 699.7454l-809.1811 0z" fill-rule="nonzero"></path><path fill="#000000" fill-opacity="0.0" d="m98.149605 349.8727l0 0c0 -169.24268 137.19827 -306.44095 306.44095 -306.44095l0 0c81.27319 0 159.21762 32.28565 216.6865 89.75447c57.46881 57.468826 89.754456 135.41328 89.754456 216.68648l0 0c0 169.24265 -137.1983 306.44095 -306.44095 306.44095l0 0c-169.24266 0 -306.44095 -137.1983 -306.44095 -306.44095z" fill-rule="nonzero"></path><path stroke="#000000" stroke-width="24.0" stroke-linejoin="round" stroke-linecap="butt" d="m98.149605 349.8727l0 0c0 -169.24268 137.19827 -306.44095 306.44095 -306.44095l0 0c81.27319 0 159.21762 32.28565 216.6865 89.75447c57.46881 57.468826 89.754456 135.41328 89.754456 216.68648l0 0c0 169.24265 -137.1983 306.44095 -306.44095 306.44095l0 0c-169.24266 0 -306.44095 -137.1983 -306.44095 -306.44095z" fill-rule="nonzero"></path><path fill="#000000" d="m171.4567 349.76117l0 0c0 -128.6954 104.32822 -233.02364 233.02362 -233.02364l0 0c61.801697 0 121.072174 24.550629 164.77255 68.25104c43.70044 43.70041 68.25104 102.97087 68.25104 164.7726l0 0c0 128.69537 -104.328186 233.02362 -233.02359 233.02362l0 0c-128.6954 0 -233.02362 -104.32825 -233.02362 -233.02362z" fill-rule="nonzero"></path><path stroke="#000000" stroke-width="24.0" stroke-linejoin="round" stroke-linecap="butt" d="m171.4567 349.76117l0 0c0 -128.6954 104.32822 -233.02364 233.02362 -233.02364l0 0c61.801697 0 121.072174 24.550629 164.77255 68.25104c43.70044 43.70041 68.25104 102.97087 68.25104 164.7726l0 0c0 128.69537 -104.328186 233.02362 -233.02359 233.02362l0 0c-128.6954 0 -233.02362 -104.32825 -233.02362 -233.02362z" fill-rule="nonzero"></path></g></svg>

