<?xml version="1.0" standalone="yes"?>

<svg version="1.1" viewBox="0.0 0.0 841.3595800524935 705.007874015748" fill="none" stroke="none" stroke-linecap="square" stroke-miterlimit="10" xmlns="http://www.w3.org/2000/svg" xmlns:xlink="http://www.w3.org/1999/xlink"><clipPath id="p.0"><path d="m0 0l841.35956 0l0 705.0079l-841.35956 0l0 -705.0079z" clip-rule="nonzero"></path></clipPath><g clip-path="url(#p.0)"><path fill="#000000" fill-opacity="0.0" d="m0 0l841.35956 0l0 705.0079l-841.35956 0z" fill-rule="nonzero"></path><path fill="#000000" fill-opacity="0.0" d="m91.32546 352.50394l0 0c0 -181.89737 147.45694 -329.35434 329.3543 -329.35434l0 0c87.35022 0 171.12277 34.69973 232.8887 96.46565c61.76593 61.765923 96.46564 145.53848 96.46564 232.88867l0 0c0 181.89737 -147.45697 329.35434 -329.35434 329.35434l0 0c-181.89737 0 -329.3543 -147.45697 -329.3543 -329.35434z" fill-rule="nonzero"></path><path stroke="#000000" stroke-width="24.0" stroke-linejoin="round" stroke-linecap="butt" d="m91.32546 352.50394l0 0c0 -181.89737 147.45694 -329.35434 329.3543 -329.35434l0 0c87.35022 0 171.12277 34.69973 232.8887 96.46565c61.76593 61.765923 96.46564 145.53848 96.46564 232.88867l0 0c0 181.89737 -147.45697 329.35434 -329.35434 329.35434l0 0c-181.89737 0 -329.3543 -147.45697 -329.3543 -329.35434z" fill-rule="nonzero"></path><path fill="#000000" d="m140.72704 352.50394l0 0c0 -154.61363 125.33913 -279.95276 279.95276 -279.95276l0 0c74.24811 0 145.45517 29.494942 197.95651 81.99626c52.501343 52.501328 81.99628 123.70842 81.99628 197.9565l0 0c0 154.61365 -125.33911 279.95273 -279.9528 279.95273l0 0c-154.61362 0 -279.95276 -125.33908 -279.95276 -279.95273z" fill-rule="nonzero"></path><path stroke="#000000" stroke-width="24.0" stroke-linejoin="round" stroke-linecap="butt" d="m140.72704 352.50394l0 0c0 -154.61363 125.33913 -279.95276 279.95276 -279.95276l0 0c74.24811 0 145.45517 29.494942 197.95651 81.99626c52.501343 52.501328 81.99628 123.70842 81.99628 197.9565l0 0c0 154.61365 -125.33911 279.95273 -279.9528 279.95273l0 0c-154.61362 0 -279.95276 -125.33908 -279.95276 -279.95273z" fill-rule="nonzero"></path></g></svg>

